<?xml version="1.0" encoding="UTF-8"?>
<svg width="47px" height="62px" viewBox="0 0 47 62" version="1.1" xmlns="http://www.w3.org/2000/svg" xmlns:xlink="http://www.w3.org/1999/xlink">
    <!-- Generator: Sketch 52.3 (67297) - http://www.bohemiancoding.com/sketch -->
    <title>Fill 1</title>
    <desc>Created with Sketch.</desc>
    <defs>
        <polygon id="path-1" points="0 0 47 0 47 62 0 62"></polygon>
    </defs>
    <g id="Page-1" stroke="none" stroke-width="1" fill="none" fill-rule="evenodd">
        <g id="PC_2nd_1018" transform="translate(-1051.000000, -10501.000000)">
            <g id="Group-3" transform="translate(1051.000000, 10501.000000)">
                <mask id="mask-2" fill="white">
                    <use xlink:href="#path-1"></use>
                </mask>
                <g id="Clip-2"></g>
                <path d="M23.9881334,33.1793585 C18.3509783,33.1793585 13.7844823,28.6615472 13.7844823,23.0897358 C13.7844823,17.5167547 18.3509783,13.0001132 23.9881334,13.0001132 C29.6241105,13.0001132 34.1929623,17.5167547 34.1929623,23.0897358 C34.1929623,28.6615472 29.6241105,33.1793585 23.9881334,33.1793585 M40.3884147,6.77203774 C35.8631432,2.29750943 29.9327053,0.0421132075 23.9881334,0 C18.0447393,0.0421132075 12.0165405,2.20509434 7.58785203,6.77203774 C-2.09048119,16.7505283 -2.9821081,29.9658868 7.65498906,43.9498113 C15.5064883,54.274566 20.0164479,59.5901887 23.3155852,61.708717 C23.5370196,61.8537736 23.7643433,61.9555472 23.9881334,62 C24.2107456,61.9555472 24.4392471,61.8537736 24.6595037,61.708717 C27.9574632,59.5901887 31.9903965,53.9002264 40.3212777,43.9498113 C48.8971501,33.7081132 49.5261181,15.8076604 40.3884147,6.77203774" id="Fill-1" fill="#1A1C1C" mask="url(#mask-2)"></path>
            </g>
        </g>
    </g>
</svg>