<?xml version="1.0" encoding="UTF-8"?>
<svg width="62px" height="16px" viewBox="0 0 62 16" version="1.1" xmlns="http://www.w3.org/2000/svg" xmlns:xlink="http://www.w3.org/1999/xlink">
    <!-- Generator: Sketch 52.3 (67297) - http://www.bohemiancoding.com/sketch -->
    <title>logo</title>
    <desc>Created with Sketch.</desc>
    <defs>
        <polygon id="path-1" points="0.0209375389 0.0452671092 14.807738 0.0452671092 14.807738 11.9487909 0.0209375389 11.9487909"></polygon>
        <polygon id="path-3" points="0 16 62 16 62 0 0 0"></polygon>
    </defs>
    <g id="Page-1" stroke="none" stroke-width="1" fill="none" fill-rule="evenodd">
        <g id="SP_Top_1024" transform="translate(-17.000000, -21.000000)">
            <g id="Header">
                <polygon id="Rectangle" points="0 0 320 0 320 60 0 60"></polygon>
                <g id="logo" transform="translate(17.000000, 21.000000)">
                    <path d="M47.1377392,9.13044432 C47.1377392,10.8230529 45.730206,12.1999792 44.0000266,12.1999792 C42.2698473,12.1999792 40.8622608,10.8230529 40.8622608,9.13044432 L40.8622608,6.59983344 L43.2646552,6.59983344 L43.2646552,3.79981262 L40.8622608,3.79981262 L40.8622608,1 L38,1 L38,4.01030215 L38,6.81032297 L38,9.13044432 C38,12.366903 40.6915734,15 44.0000266,15 C47.3084266,15 50,12.366903 50,9.13044432 L47.1377392,9.13044432 Z" id="Fill-1" fill="#207FEF"></path>
                    <path d="M25.9905336,10 C25.9905336,11.6490227 24.6490025,12.9905475 23.0000279,12.9905475 C21.3510533,12.9905475 20.0094664,11.6490227 20.0094664,10 C20.0094664,8.35092155 21.3509975,7.00945246 22.9999721,7.00945246 C24.6490025,7.00945246 25.9905336,8.35092155 25.9905336,10 M22.9999721,4 C19.6915945,4 17,6.69163778 17,10 C17,13.3083622 19.6915945,16 23.0000279,16 C26.3084055,16 29,13.3083622 29,10 C29,6.69163778 26.3084055,4 22.9999721,4" id="Fill-3" fill="#284ADD"></path>
                    <g id="Group-7" transform="translate(47.000000, 4.000000)">
                        <mask id="mask-2" fill="white">
                            <use xlink:href="#path-1"></use>
                        </mask>
                        <g id="Clip-6"></g>
                        <path d="M6.47983931,8.9634906 C4.90731687,8.9634906 3.6279306,7.63274933 3.6279306,5.9970373 C3.6279306,4.36126995 4.90731687,3.03052869 6.47983931,3.03052869 C8.05236176,3.03052869 9.33169484,4.36126995 9.33169484,5.9970373 C9.33169484,7.63274933 8.05236176,8.9634906 6.47983931,8.9634906 M15.0952882,9.10953137 C13.4453868,9.10953137 12.1029805,7.71323771 12.1029805,5.99698198 C12.1029273,2.71521337 9.53612436,0.0452671092 6.38113453,0.0452671092 C3.22603834,0.0452671092 0.659235411,2.71526869 0.659235411,5.9970373 C0.659235411,9.27886123 3.22603834,11.9488075 6.38113453,11.9488075 C8.12442263,11.9488075 9.68790423,11.1334131 10.738238,9.85024577 C11.7886249,11.1333578 13.3520001,11.9488075 15.0952882,11.9488075 C15.2131915,11.9488075 15.3299248,11.9438841 15.4460731,11.9365268 L15.4460731,9.0874593 C15.3309353,9.10145488 15.2139892,9.10953137 15.0952882,9.10953137" id="Fill-5" fill="#284ADD" mask="url(#mask-2)"></path>
                    </g>
                    <mask id="mask-4" fill="white">
                        <use xlink:href="#path-3"></use>
                    </mask>
                    <g id="Clip-9"></g>
                    <polygon id="Fill-8" fill="#284ADD" mask="url(#mask-4)" points="32 15 35 15 35 1 32 1"></polygon>
                    <path d="M2.88610191,3.03508843 C2.96164327,3.03508843 3.03595394,3.03945418 3.10885809,3.0477288 L3.10885809,2.00736085 C3.03536789,2.00248746 2.96105723,2 2.88610191,2 C1.29211475,2 0,3.11930676 0,4.5 C0,5.88069324 1.29211475,7 2.88610191,7 C3.28092126,7 3.65728016,6.93131561 4,6.80699332 L4,5.60219912 C3.70246432,5.82805044 3.31274358,5.96491157 2.88610191,5.96491157 C1.95212002,5.96491157 1.19494828,5.30908482 1.19494828,4.5 C1.19494828,3.69096595 1.95212002,3.03508843 2.88610191,3.03508843 Z" id="Fill-10" fill="#207FEF" mask="url(#mask-4)"></path>
                    <path d="M4.72332938,10.1477654 L4.72300201,10.1477654 C4.72305657,10.1520678 4.72332938,10.1562613 4.72332938,10.1605092 C4.72332938,10.6129684 4.41690879,10.993703 4,11.107907 L4,16 L5.09997135,16 L5.09997135,12.122945 C6.7576762,11.7657919 8,10.2941557 8,8.53273427 L8,8 L4.72332938,8 L4.72332938,10.1477654 Z" id="Fill-11" fill="#207FEF" mask="url(#mask-4)"></path>
                    <path d="M13,0.806712033 C13,0.810220212 13.0002653,0.813728391 13.0003184,0.817194302 L13,0.817194302 L13,2 L14,2 L14,0 C13.4465612,0.00562153937 13,0.364554715 13,0.806712033" id="Fill-12" fill="#207FEF" mask="url(#mask-4)"></path>
                    <path d="M10,9.97701627 L10,10.7512517 C10.3451624,10.7052323 10.6765362,10.6136087 10.9884763,10.482399 L10.9884763,16 L12.1116403,16 L12.1125396,10.8423565 C12.1136386,9.89358998 12.4477602,9.02586319 13,8.35845288 C12.690358,8.13261044 12.3131224,8 11.9060117,8 C10.8541382,8 10.001249,8.88489974 10,9.97701627" id="Fill-13" fill="#207FEF" mask="url(#mask-4)"></path>
                    <path d="M14.9996858,2.55808782 L13.6123042,2.55808782 C13.468466,2.08371892 13.0396219,1.73946078 12.5329155,1.73946078 C12.5277317,1.73946078 12.5228097,1.74021787 12.5176782,1.74027194 L11.1415544,1.74027194 L11.1415544,1.04553674 L11.1412403,1.04553674 C11.1412926,1.04104829 11.1415544,1.03661393 11.1415544,1.03212549 C11.1415544,0.466419487 10.7009288,0.00719232368 10.1548463,0 L10.1548463,1.23345647 L10.1548463,2.10983841 L10.1551605,2.10983841 C10.1551081,2.11432685 10.1548463,2.11876122 10.1548463,2.12324966 C10.1548463,2.44868879 10.3010932,2.73832853 10.5289199,2.92749205 L9.4556575,5.51391654 L5.15883789,5.51391654 L5.15883789,5.51397062 C5.15831427,5.51397062 5.15779065,5.51391654 5.15721467,5.51391654 C3.79748018,5.51391654 2.69510456,6.65208824 2.69458094,8.05626777 L2.69416205,8.05626777 L2.69416205,10.1889269 L2.69384788,10.1889269 C2.69390024,10.1931991 2.69416205,10.197363 2.69416205,10.2016352 C2.69416205,10.650858 2.40009747,11.0289687 2,11.1423695 L2,16 L3.05566878,16 L3.05566878,12.1502141 C4.64647645,11.7955731 5.83870513,10.3343417 5.83870513,8.58525506 L5.83870513,8.50960047 C6.47689228,9.57146865 7.54622752,10.327582 8.79427402,10.5175566 L8.79427402,16 L9.95382887,16 L9.95382887,10.5277232 C10.9017892,10.4017224 11.7512567,9.95087724 12.3925332,9.28507356 C12.5535985,8.82103349 12.7956153,8.39695678 13.1010948,8.03085128 L13.1007806,4.03154077 L13.5974858,4.03154077 L13.5974858,4.03121631 C14.3731754,4.0244566 15,3.37325388 15,2.57057975 C15,2.56636169 14.9997382,2.56225179 14.9996858,2.55808782" id="Fill-14" fill="#284ADD" mask="url(#mask-4)"></path>
                </g>
            </g>
        </g>
    </g>
</svg>