<?xml version="1.0" encoding="UTF-8"?>
<svg width="65px" height="20px" viewBox="0 0 65 20" version="1.1" xmlns="http://www.w3.org/2000/svg" xmlns:xlink="http://www.w3.org/1999/xlink">
    <!-- Generator: Sketch 52.3 (67297) - http://www.bohemiancoding.com/sketch -->
    <title>アセット 1 copy</title>
    <desc>Created with Sketch.</desc>
    <g id="Page-1" stroke="none" stroke-width="1" fill="none" fill-rule="evenodd">
        <g id="SP_Top_1024" transform="translate(-154.000000, -155.000000)">
            <g id="hero" transform="translate(-9.000000, 89.000000)">
                <text id="会社経営を-ハックする" font-family="HiraginoSans-W2, Hiragino Sans" font-size="24" font-weight="300" line-spacing="29" letter-spacing="0.579999983">
                    <tspan x="108.55" y="21" fill="#284ADD">会社経営を</tspan>
                    <tspan x="109.2" y="50" fill="#207FEF">ハックす</tspan>
                    <tspan x="206.8" y="50" fill="#207FEF">る</tspan>
                </text>
                <g id="アセット-1-copy" transform="translate(163.000000, 66.000000)" fill-rule="nonzero">
                    <path d="M41.9444444,11.3100383 C41.9044483,13.7906329 39.9260949,15.7801344 37.4993961,15.7801344 C35.0726974,15.7801344 33.094344,13.7906329 33.0543478,11.3100383 L33.0543478,7.8750463 L36.4577295,7.8750463 L36.4577295,3.72885541 L33.0543478,3.72885541 L33.0543478,0 L29,0 L29,11.3100383 C29,16.1093716 32.8055796,20 37.5,20 C42.1944204,20 46,16.1093716 46,11.3100383 L41.9444444,11.3100383 Z" id="Shape" fill="#207FEF"></path>
                    <path d="M8.5,3 C3.80778688,3.0053245 0.0053245023,6.80778688 0,11.5 C5.74900688e-16,16.1944204 3.80557963,20 8.5,20 C13.1944204,20 17,16.1944204 17,11.5 C16.9946755,6.80778688 13.1922131,3.0053245 8.5,3 Z M12.9444444,11.5 C12.9044483,13.9263691 10.9260949,15.8723802 8.49939614,15.8723802 C6.07269742,15.8723802 4.09434398,13.9263691 4.05434783,11.5 C4.02788242,9.89447418 4.86926798,8.39945098 6.25545095,7.58895091 C7.64163393,6.77845085 9.35715834,6.77845085 10.7433413,7.58895091 C12.1295243,8.39945098 12.9709099,9.89447418 12.9444444,11.5 Z" id="Shape" fill="#284ADD"></path>
                    <path d="M64.4555955,15.948552 C61.8893707,15.9458951 59.8095333,13.9609982 59.8060528,11.5112519 C59.8121673,7.39120818 56.7216249,3.86042474 52.4733023,3.13396694 C48.2249798,2.40750915 44.0427253,4.69465352 42.55031,8.56054162 C41.0578947,12.4264297 42.6852505,16.7573842 46.4114427,18.8363459 C50.1376349,20.9153076 54.8892295,20.1433734 57.6852753,17.0048223 C59.3710312,18.9048213 61.8472976,20.0003172 64.4555955,19.9999999 C64.6387478,19.9999999 64.8193739,19.9927652 65,19.9819131 L65,15.9172015 C64.8193486,15.938 64.637556,15.9484689 64.4555955,15.948552 Z M50.9162181,15.948552 C49.0355387,15.9485519 47.3400669,14.8670142 46.6204801,13.2083101 C45.9008933,11.5496061 46.29892,9.640431 47.6289418,8.3711221 C48.9589636,7.10181319 50.9590219,6.72237115 52.6963965,7.40974747 C54.433771,8.0971238 55.5662717,9.71593414 55.5657608,11.5112519 C55.5629792,13.9598631 53.4850405,15.9445655 50.9200075,15.948552 L50.9162181,15.948552 Z" id="Shape" fill="#284ADD"></path>
                    <polygon id="Rectangle-path" fill="#284ADD" points="21 0 25 0 25 20 21 20"></polygon>
                </g>
            </g>
        </g>
    </g>
</svg>