<?xml version="1.0" encoding="UTF-8"?>
<svg width="257px" height="58px" viewBox="0 0 257 58" version="1.1" xmlns="http://www.w3.org/2000/svg" xmlns:xlink="http://www.w3.org/1999/xlink">
    <!-- Generator: Sketch 52.3 (67297) - http://www.bohemiancoding.com/sketch -->
    <title>logo</title>
    <desc>Created with Sketch.</desc>
    <defs>
        <polygon id="path-1" points="0 0.156511875 15.9777 0.156511875 15.9777 38.9814994 0 38.9814994"></polygon>
        <polygon id="path-3" points="0.0362567442 0.0330980438 15.9511247 0.0330980438 15.9511247 38.9785197 0.0362567442 38.9785197"></polygon>
        <polygon id="path-5" points="0.00755 0.03315 15.9853 0.03315 15.9853 38.9816456 0.00755 38.9816456"></polygon>
        <polygon id="path-7" points="0.00370375671 0.03315 15.9188208 0.03315 15.9188208 38.9816456 0.00370375671 38.9816456"></polygon>
    </defs>
    <g id="Page-1" stroke="none" stroke-width="1" fill="none" fill-rule="evenodd">
        <g id="SP_Top_1024" transform="translate(-31.000000, -535.000000)">
            <g id="mission" transform="translate(-2.000000, 347.000000)">
                <rect id="BG" x="0" y="0" width="323" height="550"></rect>
                <g id="logo" transform="translate(33.000000, 188.000000)">
                    <g id="Group-3">
                        <mask id="mask-2" fill="white">
                            <use xlink:href="#path-1"></use>
                        </mask>
                        <g id="Clip-2"></g>
                        <path d="M8.30395,0.156511875 C3.8817,0.156511875 1.87745,2.35635562 0.97495,4.20178687 C-5e-05,6.19468687 -5e-05,8.41354312 -5e-05,9.73905562 L-5e-05,19.5690056 L-5e-05,29.3989556 C-5e-05,30.7244681 -5e-05,32.9433244 0.97495,34.9362244 C1.87745,36.7816556 3.8817,38.9814994 8.30395,38.9814994 C13.9342,38.9814994 15.9777,34.4845556 15.9777,31.4622994 L15.9777,26.9395181 C15.9777,25.7058994 14.9522,24.7060369 13.68695,24.7060369 C12.42195,24.7060369 11.3962,25.7058994 11.3962,26.9395181 L11.39645,31.4406056 C11.3962,31.4498681 11.3717,32.3722181 10.91345,33.2043806 C10.57745,33.8142431 9.97695,34.5145369 8.30395,34.5145369 C5.11895,34.5145369 4.58145,32.9364994 4.58145,29.3989556 L4.58145,19.5690056 L4.58145,9.73905562 C4.58145,6.20151187 5.11895,4.62347437 8.30395,4.62347437 C9.97695,4.62347437 10.57745,5.32376812 10.91345,5.93363062 C11.36895,6.76018687 11.39595,7.67595562 11.3962,7.67595562 L11.3962,12.1987369 C11.3962,13.4321119 12.42195,14.4322181 13.68695,14.4322181 C14.9522,14.4322181 15.9777,13.4321119 15.9777,12.1987369 L15.9777,7.67595562 C15.9777,4.65345562 13.9342,0.156511875 8.30395,0.156511875" id="Fill-1" fill="#284ADD" mask="url(#mask-2)"></path>
                    </g>
                    <path d="M28.3155638,15 C23.8871556,15 21.8801145,17.2261963 20.9763577,19.0937346 C20,21.1105081 20,23.3559447 20,24.697336 L20,36.7397632 C20,37.9881598 21.0271784,39 22.29394,39 C23.5609519,39 24.58788,37.9881598 24.58788,36.7397632 L24.58788,24.697336 C24.58788,21.1174149 25.1261285,19.5204736 28.3155638,19.5204736 C29.9908936,19.5204736 30.5922298,20.2291564 30.9286977,20.8463246 C31.384832,21.6830291 31.4118696,22.6097681 31.41212,22.6095215 L31.41212,27.1864825 C31.41212,28.4346325 32.4392984,29.4467193 33.70606,29.4467193 C34.9730719,29.4467193 36,28.4346325 36,27.1864825 L36,22.6095215 C36,19.550814 33.9536543,15 28.3155638,15" id="Fill-4" fill="#284ADD"></path>
                    <path d="M249.315313,15 C244.886905,15 242.879864,17.2240248 241.976107,19.0899878 C241,21.1045476 241,23.3477939 241,24.6878767 L241,36.7185572 C241,37.9657361 242.027178,38.9765892 243.29394,38.9765892 C244.560952,38.9765892 245.58788,37.9657361 245.58788,36.7185572 L245.58788,24.6878767 C245.58788,21.1114477 246.126129,19.5160641 249.315313,19.5160641 C250.990643,19.5160641 251.591979,20.2240556 251.928447,20.8408683 C252.384832,21.6765101 252.41187,22.6023452 252.41212,22.6020988 L252.41212,36.7419679 C252.41212,37.9889004 253.439298,39 254.70606,39 C255.973072,39 257,37.9889004 257,36.7419679 L257,22.6020988 C257,19.5461285 254.953404,15 249.315313,15" id="Fill-6" fill="#284ADD"></path>
                    <path d="M208.706096,24.7428783 L199.587808,24.7428783 L199.587808,24.5820122 C199.587808,21.0446647 200.126048,19.4667147 203.315434,19.4667147 C205.040806,19.4667147 205.644636,20.2164482 205.977845,20.8694182 C206.541369,21.9745194 207.918513,22.4251881 209.052572,21.8762936 C210.187383,21.3276428 210.650269,19.9875796 210.086995,18.8827221 C208.809488,16.379061 206.404932,15 203.315434,15 C198.886844,15 196.880085,17.1997217 195.976092,19.0450506 C195,21.0378401 195,23.2565733 195,24.5820122 L195,26.9762357 C195,28.209786 196.027162,29.2095931 197.293904,29.2095931 L206.412192,29.2095931 L206.412192,29.4179878 C206.412192,29.4318807 206.386907,30.8879625 205.822631,32.2648298 C204.998999,34.2754121 203.71298,34.5332853 202.684566,34.5332853 C200.952935,34.5332853 200.349355,33.7777022 200.016898,33.1193699 C199.45788,32.0128063 198.082989,31.5565316 196.945926,32.1010389 C195.809113,32.6453025 195.340718,33.9839032 195.899987,35.0907106 C197.173489,37.611677 199.583052,39 202.684566,39 C206.114032,39 208.741895,37.1958626 210.08399,33.9198005 C210.974465,31.7468898 211,29.6497811 211,29.4179878 L211,26.9762357 C211,25.7429291 209.973088,24.7428783 208.706096,24.7428783" id="Fill-8" fill="#284ADD"></path>
                    <g id="Group-12" transform="translate(86.000000, 0.000000)">
                        <mask id="mask-4" fill="white">
                            <use xlink:href="#path-3"></use>
                        </mask>
                        <g id="Clip-11"></g>
                        <path d="M13.6693902,26.9383761 C12.4091197,26.9383761 11.3876557,27.9369149 11.3876557,29.1683568 L11.3876557,31.4708612 C11.3876557,31.4788923 11.3555326,32.3306802 10.9556127,33.1179756 C10.6241723,33.7699584 10.0237945,34.5183149 8.30757553,34.5183149 C5.13511041,34.5183149 4.5997258,32.9427507 4.5997258,29.4109947 L4.5997258,19.6312529 L11.3879047,19.6312529 C12.6479262,19.6312529 13.6696392,18.6329575 13.6696392,17.4012722 C13.6696392,16.1695869 12.6479262,15.1712915 11.3879047,15.1712915 L4.5997258,15.1712915 L4.5997258,2.26305441 C4.5997258,1.03136912 3.57826175,0.033073707 2.31799127,0.033073707 C1.05772079,0.033073707 0.0362567442,1.03136912 0.0362567442,2.26305441 L0.0362567442,29.4109947 C0.0362567442,30.7344297 0.0362567442,32.9498083 1.00717052,34.9393415 C1.90636766,36.7818804 3.90248072,38.9785197 8.30757553,38.9785197 C13.9154181,38.9785197 15.9511247,34.488624 15.9511247,31.4708612 L15.9511247,29.1683568 C15.9511247,27.9369149 14.9296607,26.9383761 13.6693902,26.9383761" id="Fill-10" fill="#284ADD" mask="url(#mask-4)"></path>
                    </g>
                    <path d="M50.41212,24.2916679 L43.5898828,24.2916679 C43.6269343,20.9792082 44.2335279,19.496182 47.3155638,19.496182 C48.9908936,19.496182 49.5922298,20.2007728 49.9284474,20.8148364 C50.384832,21.646754 50.4118696,22.5684627 50.41212,22.5684627 L50.41212,24.2916679 Z M47.3155638,15 C42.8869052,15 40.8801145,17.214358 39.9761074,19.0717593 C39,21.0775859 39,23.3105891 39,24.6449446 L39,27.8234536 L39,29.3553007 C39,30.6894109 39,32.9226594 39.9761074,34.9282407 C40.8801145,36.7858873 42.8869052,39 47.3155638,39 C48.5823254,39 49.6095038,37.9934067 49.6095038,36.7520316 C49.6095038,35.5104112 48.5823254,34.503818 47.3155638,34.503818 C44.1261285,34.503818 43.58788,32.9155448 43.58788,29.3553007 L43.58788,28.7876046 L52.70606,28.7876046 C53.9730719,28.7876046 55,27.7812567 55,26.5396363 L55,22.5682174 C55,19.5261124 52.953404,15 47.3155638,15 Z" id="Fill-13" fill="#284ADD"></path>
                    <path d="M188.41212,24.2916679 L181.589883,24.2916679 C181.626934,20.9792082 182.233528,19.496182 185.315564,19.496182 C186.990894,19.496182 187.59223,20.2007728 187.928447,20.8148364 C188.384832,21.646754 188.41187,22.5684627 188.41212,22.5684627 L188.41212,24.2916679 Z M185.315564,15 C180.886905,15 178.880115,17.214358 177.976107,19.0717593 C177,21.0775859 177,23.3105891 177,24.6449446 L177,27.8234536 L177,29.3553007 C177,30.6894109 177,32.9226594 177.976107,34.9282407 C178.880115,36.7858873 180.886905,39 185.315564,39 C186.582325,39 187.609504,37.9934067 187.609504,36.7520316 C187.609504,35.5104112 186.582325,34.503818 185.315564,34.503818 C182.126129,34.503818 181.58788,32.9155448 181.58788,29.3553007 L181.58788,28.7876046 L190.70606,28.7876046 C191.973072,28.7876046 193,27.7812567 193,26.5396363 L193,22.5682174 C193,19.5261124 190.953404,15 185.315564,15 Z" id="Fill-15" fill="#284ADD"></path>
                    <g id="Group-19" transform="translate(58.000000, 0.000000)">
                        <mask id="mask-6" fill="white">
                            <use xlink:href="#path-5"></use>
                        </mask>
                        <g id="Clip-18"></g>
                        <path d="M11.4038,31.4622019 C11.4038,31.4702456 11.37155,32.3233706 10.97005,33.1119019 C10.63755,33.7649081 10.03455,34.5144394 8.31155,34.5144394 C5.12655,34.5144394 4.58905,32.9364019 4.58905,29.3988581 L4.58905,29.2140956 L4.58905,25.0596206 L4.58905,24.8748581 C4.58905,21.3373144 5.12655,19.7592769 8.31155,19.7592769 C9.98455,19.7592769 10.58505,20.4595706 10.9208,21.0694331 C11.37655,21.8959894 11.40355,22.8117581 11.4038,22.8117581 L11.4038,25.0596206 L11.4038,27.2185144 L11.4038,29.2140956 L11.4038,31.4622019 Z M13.69455,0.033076875 C12.42955,0.033076875 11.4038,1.03318312 11.4038,2.26655812 L11.4038,15.8368519 C10.52205,15.4936519 9.49705,15.2923144 8.31155,15.2923144 C3.88905,15.2923144 1.88505,17.4921581 0.9823,19.3375894 C0.00755,21.3304894 0.00755,23.5493456 0.00755,24.8748581 L0.00755,25.0596206 L0.00755,29.2140956 L0.00755,29.3988581 C0.00755,30.7246144 0.00755,32.9432269 0.9823,34.9361269 C1.88505,36.7815581 3.88905,38.9816456 8.31155,38.9816456 C13.94155,38.9816456 15.9853,34.4847019 15.9853,31.4622019 L15.9853,29.2140956 L15.9853,27.2185144 L15.9853,25.0596206 L15.9853,22.8117581 L15.9853,2.26655812 C15.9853,1.03318312 14.9598,0.033076875 13.69455,0.033076875 Z" id="Fill-17" fill="#284ADD" mask="url(#mask-6)"></path>
                    </g>
                    <g id="Group-22" transform="translate(157.000000, 0.000000)">
                        <mask id="mask-8" fill="white">
                            <use xlink:href="#path-7"></use>
                        </mask>
                        <g id="Clip-21"></g>
                        <path d="M10.8742526,33.2042831 C10.5393259,33.8143894 9.94143828,34.5144394 8.27502254,34.5144394 C5.10230841,34.5144394 4.56717281,32.9364019 4.56717281,29.3988581 L4.56717281,29.2140956 L4.56717281,25.0596206 L4.56717281,24.8748581 C4.56717281,21.3373144 5.10230841,19.7592769 8.27502254,19.7592769 C9.94143828,19.7592769 10.5393259,20.4595706 10.8742526,21.0696769 C11.3279599,21.8959894 11.3551027,22.8117581 11.3553517,22.8117581 L11.3553517,27.2185144 L11.3553517,29.2140956 C11.3553517,29.2153144 11.3556007,29.2162894 11.3556007,29.2172644 L11.3556007,31.4407519 C11.3553517,31.4500144 11.3309481,32.3721206 10.8742526,33.2042831 M13.6370862,0.033076875 C12.3768157,0.033076875 11.3553517,1.03318312 11.3553517,2.26655812 L11.3553517,15.8368519 C10.4765739,15.4936519 9.4561059,15.2923144 8.27502254,15.2923144 C3.86992773,15.2923144 1.87356565,17.4921581 0.974617531,19.3375894 C0.00370375671,21.3304894 0.00370375671,23.5493456 0.00370375671,24.8748581 L0.00370375671,25.0596206 L0.00370375671,29.2140956 L0.00370375671,29.3988581 C0.00370375671,30.7246144 0.00370375671,32.9432269 0.974617531,34.9361269 C1.87356565,36.7815581 3.86992773,38.9816456 8.27502254,38.9816456 C13.8831141,38.9816456 15.9188208,34.4847019 15.9188208,31.4622019 L15.9188208,29.2140956 L15.9188208,27.2185144 L15.9188208,25.0596206 L15.9188208,22.8117581 L15.9188208,2.26655812 C15.9188208,1.03318312 14.8971077,0.033076875 13.6370862,0.033076875" id="Fill-20" fill="#284ADD" mask="url(#mask-8)"></path>
                    </g>
                    <path d="M232.977594,32.8345758 C232.644636,33.4881313 232.041056,34.238293 230.315434,34.238293 C227.126048,34.238293 226.588059,32.6589282 226.588059,29.118409 L226.588059,28.9334911 L226.588059,24.7755217 L226.588059,24.5906038 C226.588059,21.0500845 227.126048,19.4707197 230.315434,19.4707197 C231.990988,19.4707197 232.592064,20.1716025 232.928527,20.781978 C233.384654,21.6092294 233.411691,22.5257685 233.411941,22.5257685 L233.411941,24.7755217 L233.411941,24.9294573 L233.411941,28.9334911 L233.411941,31.1834882 C233.411941,31.1915387 233.379647,32.0453813 232.977594,32.8345758 M230.315434,15 C225.887095,15 223.880085,17.2016941 222.976342,19.0486775 C222,21.0432538 222,23.2639764 222,24.5906038 L222,24.7755217 L222,28.9334911 L222,29.118409 C222,30.4452803 222,32.6657589 222.976342,34.6603352 C223.880085,36.5073187 225.887095,38.7092567 230.315434,38.7092567 C231.502566,38.7092567 232.528977,38.5077498 233.411941,38.1642612 L233.411941,44.0665089 L233.412192,50.4530075 C233.411941,50.4622777 233.387658,51.3854035 232.928527,52.218022 C232.592064,52.8286415 231.990988,53.5292803 230.315434,53.5292803 C227.126048,53.5292803 226.588059,51.9499155 226.588059,48.4093962 L226.588059,44.0665089 C226.588059,42.8318526 225.560896,41.8311491 224.293904,41.8311491 C223.027162,41.8311491 222,42.8318526 222,44.0665089 L222,48.4093962 C222,49.7362676 222,51.9567462 222.976342,53.9513225 C223.880085,55.7983059 225.887095,58 230.315434,58 C235.953436,58 238,53.4995178 238,50.4744755 L238,44.0665089 L238,31.1834882 L238,28.9334911 L238,24.9294573 L238,24.7755217 L238,22.5257685 C238,19.5004822 235.953436,15 230.315434,15" id="Fill-23" fill="#284ADD"></path>
                    <path d="M79.5,22 C78.1191749,22 77,22.9658095 77,24.1568881 L77,35.8431119 C77,37.0344259 78.1191749,38 79.5,38 C80.8808251,38 82,37.0344259 82,35.8431119 L82,24.1568881 C82,22.9658095 80.8808251,22 79.5,22" id="Fill-25" fill="#284ADD"></path>
                    <path d="M79.5,13 C78.1191749,13 77,13.9776807 77,15.1833995 L77,16.8166005 C77,18.0223193 78.1191749,19 79.5,19 C80.8808251,19 82,18.0223193 82,16.8166005 L82,15.1833995 C82,13.9776807 80.8808251,13 79.5,13" id="Fill-27" fill="#284ADD"></path>
                    <path d="M216.5,22 C215.119175,22 214,22.9658095 214,24.1568881 L214,35.8431119 C214,37.0344259 215.119175,38 216.5,38 C217.880825,38 219,37.0344259 219,35.8431119 L219,24.1568881 C219,22.9658095 217.880825,22 216.5,22" id="Fill-29" fill="#284ADD"></path>
                    <path d="M216.5,13 C215.119175,13 214,13.9776807 214,15.1833995 L214,16.8166005 C214,18.0223193 215.119175,19 216.5,19 C217.880825,19 219,18.0223193 219,16.8166005 L219,15.1833995 C219,13.9776807 217.880825,13 216.5,13" id="Fill-31" fill="#284ADD"></path>
                    <path d="M150,15 C148.343078,15 147,16.3430776 147,18 C147,19.6569224 148.343078,21 150,21 C151.656922,21 153,19.6569224 153,18 C153,16.3430776 151.656922,15 150,15" id="Fill-33" fill="#284ADD"></path>
                    <path d="M139.412192,24.2916679 L132.589811,24.2916679 C132.626862,20.9792082 133.233446,19.496182 136.315434,19.496182 C137.990737,19.496182 138.592064,20.2007728 138.928527,20.8148364 C139.384904,21.646754 139.411941,22.5684627 139.412192,22.5684627 L139.412192,24.2916679 Z M136.315434,15 C131.886844,15 129.880085,17.214358 128.976092,19.0717593 C128,21.0775859 128,23.3105891 128,24.6449446 L128,27.8234536 L128,29.3553007 C128,30.6894109 128,32.9226594 128.976092,34.9282407 C129.880085,36.7858873 131.886844,39 136.315434,39 C137.582175,39 138.609338,37.9934067 138.609338,36.7520316 C138.609338,35.5104112 137.582175,34.503818 136.315434,34.503818 C133.126048,34.503818 132.587808,32.9155448 132.587808,29.3553007 L132.587808,28.7876046 L141.706096,28.7876046 C142.973088,28.7876046 144,27.7812567 144,26.5396363 L144,22.5682174 C144,19.5261124 141.953436,15 136.315434,15 Z" id="Fill-35" fill="#207FEF"></path>
                    <path d="M117.03931,4.49316326 C118.658983,4.49316326 119.240342,5.19756455 119.565632,5.81100417 C120.006855,6.64240854 120.032994,7.56354869 120.033236,7.56354869 L120.033236,12.1128581 L120.033236,12.1153099 L120.033478,14.934141 C120.033236,14.943703 120.009517,15.8712178 119.565632,16.7082613 C119.240342,17.3219461 118.658983,18.0261022 117.03931,18.0261022 C113.955832,18.0261022 113.435465,16.4388088 113.435465,12.8805158 L113.435465,9.63874971 C113.435465,6.08045666 113.955832,4.49316326 117.03931,4.49316326 Z M115.874897,22.454538 C116.244479,22.4932764 116.627857,22.5192655 117.03931,22.5192655 C122.490095,22.5192655 124.468701,17.9961903 124.468701,14.955962 L124.468701,12.1128581 L124.468701,8.51582666 L124.468701,7.56330351 C124.468701,4.52332036 122.490095,0 117.03931,0 C112.758019,0 110.817655,2.21274683 109.943922,4.06900237 C109.292132,5.4530418 109.09052,6.9449603 109.028076,8.17527206 C109.011375,8.28658364 109,8.39961148 109,8.51582666 L109,9.63874971 L109,12.8805158 L109,19.5263568 L109,19.5349381 L109,19.5418031 L109,36.7534184 C109,37.9940277 109.993054,39 111.217732,39 C112.442652,39 113.435465,37.9940277 113.435465,36.7534184 L113.435465,26.8052519 L120.950051,37.9619091 C121.379656,38.5993764 122.075738,38.9423828 122.783921,38.9423828 C123.214737,38.9423828 123.649667,38.8156249 124.032076,38.5513211 C125.043767,37.8520686 125.304193,36.4542991 124.614162,35.429448 L115.874897,22.454538 Z" id="Fill-37" fill="#207FEF"></path>
                    <path d="M150,32 C148.343078,32 147,33.3433115 147,35 C147,36.6569224 148.343078,38 150,38 C151.656922,38 153,36.6569224 153,35 C153,33.3433115 151.656922,32 150,32" id="Fill-39" fill="#207FEF"></path>
                </g>
            </g>
        </g>
    </g>
</svg>