<?xml version="1.0" encoding="UTF-8"?>
<svg width="28px" height="38px" viewBox="0 0 28 38" version="1.1" xmlns="http://www.w3.org/2000/svg" xmlns:xlink="http://www.w3.org/1999/xlink">
    <!-- Generator: Sketch 52.3 (67297) - http://www.bohemiancoding.com/sketch -->
    <title>gmap-marker</title>
    <desc>Created with Sketch.</desc>
    <defs>
        <polygon id="path-1" points="0 0 28 0 28 38 0 38"></polygon>
    </defs>
    <g id="Page-1" stroke="none" stroke-width="1" fill="none" fill-rule="evenodd">
        <g id="gmap-marker">
            <mask id="mask-2" fill="white">
                <use xlink:href="#path-1"></use>
            </mask>
            <g id="path-1"></g>
            <path d="M14.2908029,20.3357359 C10.9324977,20.3357359 8.21203201,17.5667547 8.21203201,14.1517736 C8.21203201,10.7360755 10.9324977,7.96781132 14.2908029,7.96781132 C17.6484063,7.96781132 20.3702754,10.7360755 20.3702754,14.1517736 C20.3702754,17.5667547 17.6484063,20.3357359 14.2908029,20.3357359 M24.0611832,4.15060378 C21.3652768,1.40815094 17.83225,0.0258113207 14.2908029,0 C10.7500575,0.0258113207 7.15879009,1.35150943 4.52042249,4.15060378 C-1.24539305,10.2664528 -1.77657504,18.3661887 4.56041902,26.9369811 C9.23790793,33.2650566 11.9246924,36.5230189 13.8901359,37.8214717 C14.0220542,37.9103774 14.1574811,37.9727547 14.2908029,38 C14.4234229,37.9727547 14.5595515,37.9103774 14.6907682,37.8214717 C16.65551,36.5230189 19.0581086,33.0356226 24.0211867,26.9369811 C29.1302171,20.6598113 29.5049214,9.68856605 24.0611832,4.15060378" id="Fill-1" fill="#1A1C1C" fill-rule="nonzero" mask="url(#mask-2)"></path>
        </g>
    </g>
</svg>